# xmcd CD database file
#
# Track frame offsets:
#	150
#	15315
#	31178
#	53778
#	71399
#	94747
#	109527
#	125875
#	143337
#	160820
#
# Disc length: 2514 seconds
#
# Revision: 2
# Processed by: cddbd v1.5.2PL0 Copyright (c) Steve Scherf et al.
# Submitted via: CDex 1.70beta2
#
DISCID=7409d00a
DTITLE=The Youngbloods - Highy On A Ridge Top
DYEAR=1972
DGENRE=Rock
TTITLE0=Speedo
TTITLE1=She Caught The Katy and Left Me A Mule To Ride
TTITLE2=Going By The River
TTITLE3=Running Bear
TTITLE4=I Shall Be Released
TTITLE5=Dreamboat
TTITLE6=She Came In Through The Bathroom Window
TTITLE7=Donna
TTITLE8=La Bamba
TTITLE9=Kind Hearted Woman
EXTD=YEAR: 1972
EXTT0=
EXTT1=
EXTT2=
EXTT3=
EXTT4=
EXTT5=
EXTT6=
EXTT7=
EXTT8=
EXTT9=
PLAYORDER=
